HIERARCHY
ROOT Hips
{
  OFFSET 0 89.5177 0.535
  CHANNELS 6 Xposition Yposition Zposition Zrotation Xrotation Yrotation
  JOINT Spine
  {
    OFFSET 12.0259 -0.162855 1.69034e-005
    CHANNELS 3 Zrotation Xrotation Yrotation
    JOINT Spine1
    {
      OFFSET 15.3169 -0.0121922 0
      CHANNELS 3 Zrotation Xrotation Yrotation
      JOINT Spine2
      {
        OFFSET 15.3176 -0.0121908 0
        CHANNELS 3 Zrotation Xrotation Yrotation
        JOINT Neck
        {
          OFFSET 19.9142 1.56338 0
          CHANNELS 3 Zrotation Xrotation Yrotation
          JOINT Head
          {
            OFFSET 6.92651 0 0
            CHANNELS 3 Zrotation Xrotation Yrotation
            End Site
            {
              OFFSET 20.7666 0 0
            }
          }
          JOINT LeftShoulder
          {
            OFFSET -6.20654 0.708824 7.28219
            CHANNELS 3 Zrotation Xrotation Yrotation
            JOINT LeftArm
            {
              OFFSET 14.108 0 -1.52588e-005
              CHANNELS 3 Zrotation Xrotation Yrotation
              JOINT LeftForeArm
              {
                OFFSET 28.5802 0 0
                CHANNELS 3 Zrotation Xrotation Yrotation
                JOINT LeftHand
                {
                  OFFSET 27.092 0 0
                  CHANNELS 3 Zrotation Xrotation Yrotation
                  End Site
                  {
                    OFFSET 9.55928 -0.186424 0.145352
                  }
                }
              }
            }
          }
          JOINT RightShoulder
          {
            OFFSET -6.20654 0.708866 -7.28218
            CHANNELS 3 Zrotation Xrotation Yrotation
            JOINT RightArm
            {
              OFFSET 14.108 0 1.52588e-005
              CHANNELS 3 Zrotation Xrotation Yrotation
              JOINT RightForeArm
              {
                OFFSET 28.5802 0 0
                CHANNELS 3 Zrotation Xrotation Yrotation
                JOINT RightHand
                {
                  OFFSET 27.092 0 0
                  CHANNELS 3 Zrotation Xrotation Yrotation
                  End Site
                  {
                    OFFSET 9.55929 -0.186417 -0.145354
                  }
                }
              }
            }
          }
        }
      }
    }
  }
  JOINT LeftUpLeg
  {
    OFFSET 0.005 -0.535 8.837
    CHANNELS 3 Zrotation Xrotation Yrotation
    JOINT LeftLeg
    {
      OFFSET 39.9035 0 0
      CHANNELS 3 Zrotation Xrotation Yrotation
      JOINT LeftFoot
      {
        OFFSET 39.6689 0 0
        CHANNELS 3 Zrotation Xrotation Yrotation
        JOINT LeftToe
        {
          OFFSET 10.1624 13.6296 0
          CHANNELS 3 Zrotation Xrotation Yrotation
          End Site
          {
            OFFSET 8.38147 0 0
          }
        }
      }
    }
  }
  JOINT RightUpLeg
  {
    OFFSET 0.005 -0.535 -8.837
    CHANNELS 3 Zrotation Xrotation Yrotation
    JOINT RightLeg
    {
      OFFSET 39.9035 0 0
      CHANNELS 3 Zrotation Xrotation Yrotation
      JOINT RightFoot
      {
        OFFSET 39.6689 0 0
        CHANNELS 3 Zrotation Xrotation Yrotation
        JOINT RightToe
        {
          OFFSET 10.1624 13.6296 0
          CHANNELS 3 Zrotation Xrotation Yrotation
          End Site
          {
            OFFSET 8.38147 0 0
          }
        }
      }
    }
  }
}
MOTION
Frames:	15
Frame Time:	0.0333333
371.972 89.717 -135.125 -97.5049 -18.8329 -177.778 1.34669 -0.0563112 -1.41049 2.69159 -0.145261 -2.81912 2.69159 -0.145261 -2.81913 -8.30987e-012 -9.0191e-006 -5.27751e-005 5.32883 19.5183 -16.3115 -173.007 -22.8541 -72.4726 -27.9621 -0.132329 51.1418 -57.3973 3.97569e-015 -0 -34.9547 -67.5014 -39.9036 -176.823 14.4112 77.428 -28.0038 -4.18638 -63.0898 -33.9804 3.18055e-015 3.97569e-016 -76.8079 68.138 80.9357 -18.9883 23.3449 -170.948 -20.523 3.18055e-015 -1.98785e-015 1.78469 5.80743 -8.51353 90 -7.95139e-016 1.27222e-014 -16.1261 -35.2293 170.581 -25.9042 3.18056e-015 -0 14.1563 -0.320772 0.393492 90 3.97569e-016 3.18055e-015 
372.235 91.4233 -133.642 -97.3531 -23.3228 -178.691 1.52862 -0.443329 -1.35249 3.04651 -0.921979 -2.69265 3.04651 -0.921979 -2.69266 -8.30271e-012 -9.0191e-006 -5.27751e-005 4.32192 19.6408 -15.036 -173.405 -22.316 -73.0643 -27.4702 1.07227 52.5517 -58.1924 -7.55382e-015 -0 -34.8784 -67.7018 -39.8246 -176.418 14.9494 76.3606 -27.4625 -4.91178 -62.8574 -34.8057 3.18055e-015 -4.57205e-015 -75.6525 69.6627 79.5454 -17.0877 21.9715 -173.68 -22.3244 1.27222e-014 1.59028e-015 0.816153 6.17615 -9.01084 90 0 -1.27222e-014 -16.5258 -36.3402 170.667 -27.4231 -3.18056e-015 -7.95139e-016 8.48996 -0.673104 0.0103754 90 -3.97569e-016 -0 
372.2 92.4112 -132.2 -97.8336 -26.3037 179.716 1.59177 -0.63358 -1.12061 3.17116 -1.29745 -2.22325 3.17116 -1.29745 -2.22326 -8.30669e-012 -9.0191e-006 -5.27751e-005 3.84969 18.92 -13.8648 -173.672 -21.9135 -73.4497 -27.0569 1.8698 54.1564 -57.8314 2.88238e-015 -6.36111e-015 -35.1872 -67.7553 -40.1565 -176.102 15.2746 75.4998 -27.6024 -4.94964 -62.3058 -34.1228 -3.18055e-015 4.17448e-015 -74.0792 70.6018 77.7736 -16.4886 21.8088 -174.831 -25.2523 9.54166e-015 -0 -0.0247008 6.68842 -9.69733 90 3.18055e-015 -3.18055e-015 -17.6188 -35.2722 170.984 -29.9141 3.18056e-015 7.95139e-016 4.26787 -5.04959 -0.978554 90 7.95139e-016 -1.59028e-015 
371.952 92.3735 -130.519 -99.3273 -28.0323 177.327 1.50063 -0.64942 -0.792507 2.99244 -1.31884 -1.56774 2.99244 -1.31884 -1.56775 -8.30987e-012 -9.0191e-006 -5.27751e-005 3.4504 17.3934 -12.6855 -173.803 -21.8207 -73.7167 -26.8967 2.39392 55.3119 -57.3419 -1.19271e-015 -3.18055e-015 -34.2059 -67.6222 -39.1027 -175.962 15.2891 75.0128 -28.2223 -4.622 -61.7694 -32.8877 0 3.47873e-015 -73.1298 70.2995 76.7828 -17.019 22.2189 -175.392 -29.0881 3.18055e-015 -1.59028e-015 2.19386 7.27184 -5.24357 90 1.59028e-015 6.36111e-015 -18.8463 -29.8161 172.021 -32.2496 -7.95139e-016 9.16273e-017 3.92627 -10.6995 0.63154 90 8.94531e-016 -1.59028e-015 
371.843 91.4581 -128.89 -100.462 -30.4922 175.301 1.55092 -0.770709 -0.529472 3.09509 -1.55496 -1.03788 3.09509 -1.55496 -1.03789 -8.3043e-012 -9.0191e-006 -5.27751e-005 2.55896 15.0082 -11.2933 -173.959 -21.8243 -74.1095 -27.2258 2.84554 55.7299 -57.1235 3.18055e-015 -0 -32.8539 -67.2469 -37.6471 -175.861 15.193 74.5649 -28.4841 -3.99144 -61.2227 -31.8799 3.18055e-015 -4.57205e-015 -72.7746 69.6254 76.453 -16.4798 22.0002 -176.34 -32.486 -3.18055e-015 -4.77083e-015 5.4067 7.95125 0.540917 90 -4.77083e-015 -0 -19.6019 -25.2334 171.078 -31.1553 0 -1.59028e-015 5.03982 -7.10788 2.13395 90 3.97569e-016 -0 
371.776 89.5831 -127.435 -101.505 -34.3945 173.642 1.70461 -1.05522 -0.338846 3.40383 -2.11956 -0.646159 3.40383 -2.11957 -0.646168 -8.31066e-012 -9.0191e-006 -5.27751e-005 1.00476 12.0921 -9.74821 -174.194 -21.5769 -74.5431 -27.8231 3.43282 55.3755 -57.3188 -3.18055e-015 -0 -32.5554 -67.115 -37.3242 -175.758 15.1752 74.1809 -27.9768 -3.24968 -60.6787 -31.3314 0 -2.98177e-015 -72.7958 69.3592 76.495 -15.5878 19.9051 -177.147 -35.0366 -3.18055e-015 -3.18055e-015 12.1919 7.68789 0.775092 90 -1.59028e-015 3.18055e-015 -21.3439 -23.9155 167.412 -31.7409 7.95139e-016 1.59028e-015 9.76943 0.0971618 3.25892 90 7.95139e-016 -1.59028e-015 
371.452 86.6648 -125.706 -104.037 -37.9082 171.008 1.70098 -1.19114 -0.134815 3.40027 -2.38528 -0.234125 3.40027 -2.38528 -0.234134 -8.3051e-012 -9.0191e-006 -5.27751e-005 -1.1463 9.08945 -8.295 -174.469 -21.2668 -75.0521 -28.3038 3.34766 54.7512 -57.3836 -3.97569e-015 -0 -31.9118 -66.9554 -36.6311 -175.702 15.2686 74.0711 -27.4967 -2.41249 -60.114 -31.0706 9.54166e-015 6.4605e-015 -73.0702 69.2552 76.7984 -17.0404 18.9923 -176.601 -36.3416 1.59028e-014 9.54166e-015 21.868 6.72887 -0.288009 90 -7.95139e-016 3.18055e-015 -21.0196 -22.5185 165.888 -28.7812 -3.18056e-015 1.59028e-015 16.4907 -4.38362 9.25217 90 3.97569e-016 -3.18055e-015 
370.907 83.3686 -123.776 -106.141 -40.0718 168.956 1.9249 -1.05916 -0.0162097 3.8505 -2.11779 0.0033269 3.8505 -2.11779 0.00331761 -8.3043e-012 -9.0191e-006 -5.27751e-005 -4.15212 6.36264 -7.5726 -174.376 -21.3956 -74.8924 -28.8565 1.69286 53.6079 -56.311 1.59028e-015 -3.18055e-015 -32.7847 -66.4964 -37.5528 -175.639 15.1517 73.7351 -28.0222 -1.18669 -58.7876 -30.5381 -6.36111e-015 -1.19271e-015 -73.4418 68.9778 77.22 -20.5652 19.5363 -175.111 -39.5157 -6.36111e-015 1.59028e-015 31.315 6.42562 -1.5626 90 0 -6.36111e-015 -24.8424 -20.1455 163.712 -36.0776 -3.18056e-015 -9.54167e-015 25.7337 -8.70522 12.2303 90 -1.21329e-020 3.18055e-015 
370.172 80.9195 -121.804 -106.952 -41.7574 168.034 2.44591 -0.85741 0.0301688 4.8931 -1.71227 0.097066 4.8931 -1.71227 0.0970568 -8.31225e-012 -9.0191e-006 -5.27751e-005 -7.67498 4.28545 -7.57195 -174.259 -21.5479 -74.6919 -28.132 -1.04194 53.2777 -53.9299 0 9.54166e-015 -35.1783 -65.1081 -40.0759 -175.797 14.426 73.5636 -28.6465 1.14305 -57.6672 -28.4848 -9.54166e-015 -2.73329e-016 -72.7323 68.5318 76.4842 -27.1077 16.6145 -173.548 -49.2956 0 7.95139e-015 35.66 5.20316 -1.69937 90 -3.88251e-019 -6.36111e-015 -29.9351 -17.7861 162.185 -46.1005 -3.18056e-015 3.18056e-015 30.4938 -6.69854 12.3687 90 0 -3.18055e-015 
369.489 79.8373 -119.98 -109.383 -43.5765 165.884 2.9082 -0.617322 0.0785857 5.81774 -1.22938 0.188545 5.81774 -1.22938 0.188535 -8.30907e-012 -9.0191e-006 -5.27751e-005 -11.7868 1.52663 -7.5314 -174.314 -21.0176 -74.4847 -26.0159 -3.83287 53.65 -51.7635 3.18055e-015 -9.54166e-015 -38.3051 -63.812 -43.3963 -176.094 13.3565 73.5328 -28.4415 4.54769 -57.2062 -25.4447 3.18055e-015 4.47266e-015 -71.8013 67.9217 75.5116 -34.9163 12.6374 -172.723 -58.3688 -3.18055e-015 6.36111e-015 34.2764 4.41057 -1.59184 90 3.97569e-016 -3.18055e-015 -34.4722 -18.2278 161.87 -51.1395 1.59028e-015 -3.18056e-015 32.1391 -5.22307 11.2541 90 0 -0 
369.23 79.3998 -118.432 -111.386 -45.7326 164.147 3.26667 -0.374601 0.024816 6.53371 -0.746697 0.0710703 6.53371 -0.746698 0.0710611 -8.30748e-012 -9.0191e-006 -5.27751e-005 -13.6143 -1.41843 -6.91248 -174.654 -20.4859 -75.0298 -23.8238 -4.74375 54.6974 -50.7982 0 -0 -41.0546 -63.2185 -46.3591 -176.685 12.2175 74.6922 -27.7965 6.59476 -58.3273 -23.6042 -3.18055e-015 5.96354e-016 -71.4408 67.7964 75.1269 -42.7004 10.8318 -171.477 -66.9021 -3.18055e-015 3.18055e-015 28.8364 5.82999 -1.41342 90 0 -6.36111e-015 -36.4228 -18.2154 162.083 -53.3512 0 -3.18056e-015 33.0446 -3.55556 10.3252 90 0 -0 
369.278 79.2926 -117.497 -113.886 -48.1868 162.382 3.46947 -0.2356 -0.144326 6.93843 -0.479019 -0.274005 6.93843 -0.47902 -0.274014 -8.29476e-012 -9.0191e-006 -5.27751e-005 -13.6597 -4.53465 -5.99357 -174.469 -20.4323 -74.4963 -23.1837 -4.02958 53.6954 -51.0071 3.18055e-015 3.18055e-015 -41.6615 -63.095 -47.0163 -176.748 12.2274 74.9823 -29.6198 6.69902 -58.1184 -23.9651 6.36111e-015 1.2921e-015 -70.9576 68.3927 74.5717 -47.5148 10.5955 -171.036 -70.5838 3.18055e-015 1.59028e-015 24.431 8.25396 -1.05648 90 3.18055e-015 -6.36111e-015 -38.4569 -20.3478 160.61 -54.4226 3.18056e-015 -6.36111e-015 33.6169 -3.39184 9.76775 90 0 6.36111e-015 
369.65 79.5554 -117.026 -115.342 -50.1542 160.667 3.64325 -0.0987437 -0.179935 7.28618 -0.208238 -0.353108 7.28618 -0.208239 -0.353117 -8.30748e-012 -9.0191e-006 -5.27751e-005 -12.9556 -7.28394 -4.91092 -174.361 -20.3816 -74.1722 -21.2994 -2.26601 53.1024 -51.6518 3.18055e-015 3.18055e-015 -40.9302 -62.7101 -46.1962 -176.637 12.5933 74.917 -31.9512 5.69856 -57.2609 -25.9868 6.36111e-015 7.95139e-016 -70.5946 69.2529 74.1323 -49.1238 10.9713 -169.863 -70.3512 3.18055e-015 -3.18055e-015 22.6666 10.3047 -1.13512 90 0 -0 -38.5353 -22.9308 160.244 -53.7493 3.18056e-015 -3.18056e-015 33.4992 -3.15791 9.31132 90 -1.21329e-020 -3.18055e-015 
370.084 79.7079 -116.685 -116.981 -51.8874 158.556 3.79845 -0.0535302 -0.183961 7.59671 -0.118646 -0.363849 7.59671 -0.118647 -0.363858 -8.31066e-012 -9.0191e-006 -5.27751e-005 -13.1565 -9.87179 -3.5299 -174.449 -20.138 -74.2367 -18.0916 -0.795112 52.7155 -52.0709 -6.36111e-015 3.18055e-015 -40.3918 -62.3087 -45.5845 -176.376 13.0735 74.3566 -34.0868 4.95977 -55.6575 -28.5973 1.59028e-015 1.98785e-016 -70.4774 69.8083 73.9735 -49.9211 11.1258 -168.465 -67.952 3.18055e-015 7.95139e-015 22.7357 10.0442 -2.18701 90 -7.95139e-016 -0 -38.6005 -24.7287 160.599 -53.7794 3.18056e-015 -3.18056e-015 33.876 -2.41889 7.30861 90 -3.97569e-016 -0 
370.215 79.6547 -116.449 -118.686 -53.3724 156.447 4.03035 -0.121596 -0.159597 8.06038 -0.253623 -0.310134 8.06038 -0.253624 -0.310143 -8.29158e-012 -9.0191e-006 -5.27751e-005 -14.2292 -12.1127 -2.14729 -174.507 -19.9293 -74.244 -14.6477 -0.430989 51.972 -51.0724 -3.18055e-015 3.18055e-015 -40.4872 -61.9385 -45.6659 -176.225 13.247 73.9381 -35.7272 5.61213 -53.5704 -30.3526 0 -2.68359e-015 -70.6838 69.8243 74.1937 -49.6692 11.156 -167.591 -63.231 -6.36111e-015 -4.77083e-015 24.3351 7.76175 -3.76795 90 -7.95139e-016 3.18055e-015 -42.5282 -24.0211 159.184 -60.1829 1.59028e-015 3.18056e-015 31.0216 -2.06436 6.12645 90 -7.95139e-016 9.54166e-015 
